<svg xmlns="http://www.w3.org/2000/svg" viewBox="0 0 512 512">
  <defs>
    <linearGradient id="g" x1="0%" y1="0%" x2="100%" y2="100%">
      <stop offset="0%" style="stop-color:#6366f1;stop-opacity:1" />
      <stop offset="100%" style="stop-color:#a855f7;stop-opacity:1" />
    </linearGradient>
  </defs>
  <rect width="512" height="512" rx="128" fill="url(#g)" />
  <path d="M256 120c-11.046 0-20 8.954-20 20v232c0 11.046 8.954 20 20 20s20-8.954 20-20V140c0-11.046-8.954-20-20-20z" fill="#fff" />
  <path d="M140 236c-11.046 0-20 8.954-20 20v116c0 11.046 8.954 20 20 20s20-8.954 20-20V256c0-11.046-8.954-20-20-20z" fill="#fff" opacity="0.6" />
  <path d="M372 180c-11.046 0-20 8.954-20 20v172c0 11.046 8.954 20 20 20s20-8.954 20-20V200c0-11.046-8.954-20-20-20z" fill="#fff" opacity="0.8" />
  <path d="M120 256h272M120 320h272" stroke="#fff" stroke-width="24" stroke-linecap="round" opacity="0.3" />
</svg>
